<svg xmlns="http://www.w3.org/2000/svg" xml:space="preserve" viewBox="150 168 740 695">
  <style>
    .dog-fill { fill: #000000; }
  </style>
  <path class="dog-fill" d="M389.439 830.72c-68.559-17.119-133.37-42.17-192.717-80.297-6.161-3.959-12.234-8.105-18.012-12.596-6.926-5.383-10.004-12.49-7.004-21.194a5342 5342 0 0 1 19.684-56.074c8.119-22.736 16.294-45.453 24.663-68.098 1.527-4.134-.32-6.164-3.157-8.337-14.62-11.206-27.854-23.777-38.558-38.894-15.781-22.286-20.366-46.98-17.987-73.913 5.11-57.865 26.388-109.78 57.577-157.872 24.21-37.33 55.286-68.242 92.833-92.436 37.816-24.368 79.094-39.594 123.511-46.014 25.078-3.625 50.263-3.38 75.536-.498 30.726 3.504 60.22 10.881 87.874 24.822 43.487 21.923 74.647 55.65 94.846 99.796 3.264 7.133 6.43 14.314 8.809 21.75 5.491 17.17 18.091 24.69 34.959 26.822 15.39 1.947 30.853 2.128 46.338 2.043 17.166-.095 34.355-.544 51.494.139 22.196.884 39.609 10.666 46.575 32.54 4.094 12.855 4.285 26.08 2.843 39.48-3.689 34.279-15.695 65.692-33.41 94.846-31.65 52.082-76.44 87.145-135.922 102.749-23.23 6.093-46.747 8.741-70.662 7.646-9.613-.44-19.178-1.914-28.77-2.874-6.34-.634-10.918 2.073-14.066 7.508-7 12.09-11.106 25.266-14.42 38.71-4.742 19.234-7.005 38.842-9.229 58.506-3.191 28.22-2.803 56.483-2.769 84.768.006 4.99 1.172 9.875 1.085 14.913-.245 14.224-6.992 22.105-21.116 22.404-11.107.235-22.245-.886-33.364-1.498-9.29-.51-18.556-1.268-27.822-2.184-22.177-2.193-44.221-5.212-66.084-9.498-11.089-2.173-22.113-4.678-33.558-7.166m63.564-28.388c24.478 3.898 49.222 5.114 73.868 7.325 3.368.302 5.106-.974 4.816-4.511-.298-3.648-.753-7.294-.837-10.947-.443-19.485.361-38.925 1.762-58.368 1.698-23.58 4.697-46.943 10.152-69.954 5.091-21.477 11.546-42.43 24.308-60.865 9.554-13.802 21.91-22.767 39.385-22.574 8.974.1 17.889 1.716 26.821 2.079 21.632.877 43.296.739 64.57-4.151 9.092-2.09 18.513-3.31 27.347-8.477-22.002-4.084-42.519-10.544-61.827-20.577-19.804-10.29-37.813-23.11-53.421-39.07-7.033-7.191-7.127-18.186-1.126-25.618 6.047-7.489 15.678-9.102 24.762-4.125 4.705 2.578 8.792 6.02 12.922 9.39 33.527 27.35 71.198 43.395 115.177 41.794 11.253-.409 22.27-2.336 30.893-10.66 21.03-20.302 32.496-45.888 40.842-73.415-15.554 1.863-29.096-1.964-40.649-11.914-12.555-10.813-18.874-25.17-21.879-41.086-.659-3.49-2.088-4.233-5.25-4.287-9.473-.162-18.946.333-28.419-.96-18.33-2.502-35.266-8.405-50.07-19.66-13.251-10.076-20.768-24.185-26.093-39.452-12.49-35.814-32.78-65.689-64.644-87.068-32-21.47-68.097-29.721-105.784-31.774-22.08-1.202-44.186-.303-66.148 3.686-50.97 9.256-95.827 30.808-134.133 65.648-28.62 26.03-49.797 57.642-66.932 92.054-14.65 29.422-24.434 60.338-28.425 93.115-2.652 21.78.33 41.383 15.047 58.885 33.845 40.252 76.673 65.442 127.384 77.72 14.94 3.616 30.275 5.269 45.528 2.124 22.654-4.67 37.637-19.658 49.345-38.497 15.53-24.988 20.114-53.001 21.343-81.67 1.215-28.302-.665-56.503-4.794-84.56-3.882-26.373-9.31-52.344-17.962-77.616-3.175-9.278-7.332-18.267-9.173-27.96-1.644-8.653 3.186-16.684 11.793-20.316 8.034-3.391 16.716-1.037 21.895 5.87 2.823 3.768 4.906 7.915 6.664 12.257 8.268 20.426 14.282 41.515 18.809 63.064 6.09 28.997 9.787 58.347 11.158 87.88 1.196 25.752.684 51.563-3.772 77.132-5.069 29.088-14.64 56.343-31.98 80.521-14.867 20.731-33.19 36.95-58.6 43.316-22.128 5.543-44.224 3.549-66.214-1.264-26.444-5.787-50.872-16.618-74.426-29.663-1.682-.931-3.23-2.386-5.742-2.152-.612 1.213-1.413 2.478-1.92 3.852-11.53 31.244-22.979 62.52-34.613 93.725-1.14 3.056-.347 4.687 2.092 6.163 1.282.775 2.528 1.61 3.8 2.403 44.23 27.602 91.541 48.332 141.464 63.15 29.524 8.763 59.456 15.783 90.886 20.058"/>
  <path class="dog-fill" d="M566.684 376.17c-12.52-23.92-.154-51.822 25.309-57.79 12.87-3.016 28.06 4.244 36.415 17.405 13.967 21.997 2.518 52.279-22.238 58.82-14.652 3.872-30.072-3.223-39.486-18.435"/>
</svg>