<svg xmlns="http://www.w3.org/2000/svg" xmlns:xlink="http://www.w3.org/1999/xlink" xmlns:fi="http://pattern.flaticon.com/" x="0" y="0" width="400" height="400" viewBox="0 0 700 700"><rect x="0px" y="0px" width="100%" height="100%" opacity="0" fill="#ffffff"/><defs><g transform="matrix(0.09809396415948868 0 0 0.09809396415948868 108.93174839178005 69.92492517635787)" id="L1_7"><path d="m508.519531 166.558594-119.503906-143.234375c-1.472656-2.03125-3.082031-3.953125-4.8125-5.757813-.492187-.578125-1.023437-1.101562-1.578125-1.585937-9.929688-9.574219-23.414062-15.480469-38.257812-15.480469h-176.730469c-14.871094 0-28.375 5.921875-38.304688 15.523438-.5.4375-.976562.910156-1.421875 1.425781-1.78125 1.847656-3.433594 3.816406-4.941406 5.898437l-119.488281 143.210938c-2.25 2.695312-3.480469 6.097656-3.480469 9.609375 0 39.277343 31.953125 71.230469 71.234375 71.230469 15.359375 0 29.585937-4.902344 41.230469-13.199219v54.433593c0 40.703126 30.84375 74.324219 70.382812 78.757813 12.152344 29.160156 40.792969 48.707031 73.152344 48.707031s61.003906-19.546875 73.148438-48.710937c39.542968-4.429688 70.382812-38.050781 70.382812-78.753907v-54.4375c11.648438 8.300782 25.875 13.203126 41.234375 13.203126 39.277344 0 71.234375-31.953126 71.234375-71.230469 0-3.511719-1.230469-6.914063-3.480469-9.609375zm-437.285156 50.839844c-21.023437 0-38.421875-15.808594-40.925781-36.164063l82.15625-98.472656v93.40625c.003906 22.734375-18.496094 41.230469-41.230469 41.230469zm184.765625 168.699218c-16.761719 0-31.917969-8.429687-40.878906-21.722656 16.613281-5.140625 30.90625-15.601562 40.878906-29.390625 9.972656 13.789063 24.265625 24.25 40.878906 29.390625-8.957031 13.292969-24.113281 21.722656-40.878906 21.722656zm1.902344-115.605468c-.726563 1.261718-1.398438 2.097656-1.902344 2.609374-.503906-.511718-1.171875-1.347656-1.898438-2.609374l-16.074218-27.832032c-.726563-1.261718-1.113282-2.257812-1.308594-2.953125.695312-.175781 1.753906-.339843 3.210938-.339843h32.140624c1.457032 0 2.515626.164062 3.210938.339843-.191406.695313-.578125 1.691407-1.308594 2.953125zm111.628906 18.140624c0 27.164063-22.097656 49.265626-49.265625 49.265626-23.753906 0-43.632813-16.898438-48.253906-39.304688 4.582031-3.085938 8.640625-7.507812 11.871093-13.101562l16.074219-27.835938c6.652344-11.527344 7.296875-23.632812 1.761719-33.214844-5.53125-9.578125-16.335938-15.074218-29.648438-15.074218h-32.140624c-13.3125 0-24.117188 5.496093-29.648438 15.074218-5.535156 9.582032-4.890625 21.6875 1.765625 33.21875l16.070313 27.832032c3.230468 5.59375 7.289062 10.015624 11.871093 13.101562-4.621093 22.40625-24.5 39.308594-48.253906 39.308594-27.167969 0-49.269531-22.101563-49.269531-49.269532v-232.964843c0-5.132813 1.550781-9.910157 4.195312-13.894531l3.507813-4.203126c4.53125-4.371093 10.6875-7.070312 17.464843-7.070312h176.734376c6.792968 0 12.960937 2.710938 17.496093 7.109375l3.429688 4.113281c2.671875 4 4.234375 8.804688 4.238281 13.976563v.023437zm71.234375-71.234374c-22.734375 0-41.230469-18.496094-41.230469-41.230469v-93.410157l82.15625 98.476563c-2.503906 20.355469-19.902344 36.164063-40.925781 36.164063zm0 0"/><path d="m191.730469 129.03125c-3.949219 0-7.808594 1.597656-10.601563 4.398438-2.800781 2.789062-4.398437 6.648437-4.398437 10.601562 0 3.949219 1.597656 7.816406 4.398437 10.609375 2.792969 2.789063 6.652344 4.390625 10.601563 4.390625s7.820312-1.601562 10.609375-4.390625c2.789062-2.792969 4.390625-6.660156 4.390625-10.609375 0-3.953125-1.601563-7.8125-4.390625-10.601562-2.789063-2.800782-6.660156-4.398438-10.609375-4.398438zm0 0"/><path d="m320.269531 129.03125c-3.949219 0-7.820312 1.597656-10.609375 4.398438-2.789062 2.789062-4.390625 6.648437-4.390625 10.601562 0 3.949219 1.601563 7.816406 4.390625 10.609375 2.789063 2.789063 6.660156 4.390625 10.609375 4.390625s7.808594-1.601562 10.601563-4.390625c2.800781-2.792969 4.398437-6.660156 4.398437-10.609375 0-3.953125-1.597656-7.8125-4.398437-10.601562-2.792969-2.800782-6.652344-4.398438-10.601563-4.398438zm0 0"/></g><g transform="matrix(0.10483386367559433 0 0 0.10483386367559433 277.1625289916992 242.7547867961572)" id="L1_10"><path d="m336.332031 334.304688h-160.667969c-8.28125 0-15 6.714843-15 15 0 8.285156 6.71875 15 15 15h160.667969c8.285157 0 15-6.714844 15-15 0-8.285157-6.714843-15-15-15zm0 0"/><path d="m497 422.671875h-4.609375l-34.617187-126.929687c-7.621094-27.925782-36.261719-49.800782-65.210938-49.800782h-44.734375l58.914063-58.917968c26.496093 16.800781 62.089843 13.652343 85.175781-9.4375 12.949219-12.945313 20.082031-30.164063 20.082031-48.472657 0-18.3125-7.132812-35.53125-20.078125-48.476562-11.242187-11.242188-25.578125-18.042969-40.898437-19.699219-1.65625-15.320312-8.457032-29.65625-19.695313-40.890625-26.730469-26.730469-70.222656-26.730469-96.949219 0-23.089844 23.085937-26.238281 58.675781-9.441406 85.175781l-140.71875 140.71875h-64.785156c-28.949219 0-57.589844 21.875-65.207032 49.800782l-34.617187 126.929687h-4.609375c-8.285156 0-15 6.714844-15 15s6.714844 15 15 15h465.828125c.03125 0 .0625.003906.09375.003906.039063 0 .082031-.003906.121094-.003906h15.957031c8.285156 0 15-6.714844 15-15s-6.714844-15-15-15zm-141.410156-305.675781c5.855468-5.855469 5.855468-15.351563 0-21.210938-15.03125-15.035156-15.03125-39.496094 0-54.523437 15.03125-15.035157 39.492187-15.035157 54.527344 0 8.652343 8.648437 12.625 20.578125 10.902343 32.722656-.664062 4.671875.910157 9.382813 4.246094 12.71875 3.335937 3.332031 8.050781 4.902344 12.714844 4.242187 12.144531-1.730468 24.070312 2.246094 32.722656 10.902344 7.285156 7.28125 11.292969 16.964844 11.292969 27.261719 0 10.300781-4.011719 19.980469-11.292969 27.261719-15.03125 15.035156-39.492187 15.035156-54.523437 0-5.859376-5.855469-15.355469-5.855469-21.214844.003906l-89.5625 89.5625h-78.761719zm-272.421875 186.640625c4.027343-14.753907 20.972656-27.695313 36.265625-27.695313h273.132812c15.292969 0 32.238282 12.941406 36.265625 27.695313l32.460938 119.035156h-410.589844zm0 0"/></g></defs><g fi:class="KUsePattern" opacity="0.5"><pattern id="pattern_L1_7" width="350" height="350" patternUnits="userSpaceOnUse"><use xlink:href="#L1_7" x="-350" y="-350"/><use xlink:href="#L1_7" x="0" y="-350"/><use xlink:href="#L1_7" x="350" y="-350"/><use xlink:href="#L1_7" x="-350" y="0"/><use xlink:href="#L1_7" x="0" y="0"/><use xlink:href="#L1_7" x="350" y="0"/><use xlink:href="#L1_7" x="-350" y="350"/><use xlink:href="#L1_7" x="0" y="350"/><use xlink:href="#L1_7" x="350" y="350"/></pattern><rect x="0" y="0" width="100%" height="100%" fill="url(#pattern_L1_7)"/></g><g fi:class="KUsePattern" opacity="0.5"><pattern id="pattern_L1_10" width="350" height="350" patternUnits="userSpaceOnUse"><use xlink:href="#L1_10" x="-350" y="-350"/><use xlink:href="#L1_10" x="0" y="-350"/><use xlink:href="#L1_10" x="350" y="-350"/><use xlink:href="#L1_10" x="-350" y="0"/><use xlink:href="#L1_10" x="0" y="0"/><use xlink:href="#L1_10" x="350" y="0"/><use xlink:href="#L1_10" x="-350" y="350"/><use xlink:href="#L1_10" x="0" y="350"/><use xlink:href="#L1_10" x="350" y="350"/></pattern><rect x="0" y="0" width="100%" height="100%" fill="url(#pattern_L1_10)"/></g></svg>